<svg width="43" height="43" viewBox="0 0 43 43" fill="none" xmlns="http://www.w3.org/2000/svg">
<circle cx="21.5" cy="21.5" r="21.5" fill="#6953D3" fill-opacity="0.1"/>
<path d="M32 20.75C32.41 20.75 32.75 20.41 32.75 20V19C32.75 14.59 31.41 13.25 27 13.25H20.75V15.5C20.75 15.91 20.41 16.25 20 16.25C19.59 16.25 19.25 15.91 19.25 15.5V13.25H17C12.59 13.25 11.25 14.59 11.25 19V19.5C11.25 19.91 11.59 20.25 12 20.25C12.96 20.25 13.75 21.04 13.75 22C13.75 22.96 12.96 23.75 12 23.75C11.59 23.75 11.25 24.09 11.25 24.5V25C11.25 29.41 12.59 30.75 17 30.75H19.25V28.5C19.25 28.09 19.59 27.75 20 27.75C20.41 27.75 20.75 28.09 20.75 28.5V30.75H27C31.41 30.75 32.75 29.41 32.75 25C32.75 24.59 32.41 24.25 32 24.25C31.04 24.25 30.25 23.46 30.25 22.5C30.25 21.54 31.04 20.75 32 20.75ZM20.75 24.17C20.75 24.58 20.41 24.92 20 24.92C19.59 24.92 19.25 24.58 19.25 24.17V19.83C19.25 19.42 19.59 19.08 20 19.08C20.41 19.08 20.75 19.42 20.75 19.83V24.17Z" fill="#6953D3"/>
</svg>
