<svg width="43" height="43" viewBox="0 0 43 43" fill="none" xmlns="http://www.w3.org/2000/svg">
<circle cx="21.5" cy="21.5" r="21.5" fill="#6953D3" fill-opacity="0.1"/>
<path d="M15.5137 27.433C15.6095 27.4713 15.6958 27.4905 15.7916 27.4905H25.6337C26.0266 27.4905 26.3525 27.1647 26.3525 26.7718C26.3525 26.3788 26.0266 26.053 25.6337 26.053H17.5262L29.7162 13.863C29.9941 13.5851 29.9941 13.1251 29.7162 12.8472C29.581 12.7135 29.3985 12.6385 29.2083 12.6385C29.0181 12.6385 28.8356 12.7135 28.7004 12.8472L16.5104 25.0372V16.9297C16.5104 16.5368 16.1845 16.2109 15.7916 16.2109C15.3987 16.2109 15.0729 16.5368 15.0729 16.9297V26.7718C15.0729 26.8676 15.092 26.9538 15.1304 27.0497C15.1975 27.2222 15.3412 27.3659 15.5137 27.433ZM30.6458 30.3646H14.3541C13.9612 30.3646 13.6354 30.6904 13.6354 31.0833C13.6354 31.4762 13.9612 31.8021 14.3541 31.8021H30.6458C31.0387 31.8021 31.3645 31.4762 31.3645 31.0833C31.3645 30.6904 31.0387 30.3646 30.6458 30.3646Z" fill="#6953D3"/>
</svg>
