<svg width="28" height="28" viewBox="0 0 28 28" fill="none" xmlns="http://www.w3.org/2000/svg">
<circle cx="14" cy="14" r="13.5" stroke="#444444"/>
<path d="M14.1466 12.9641C14.055 12.955 13.945 12.955 13.8441 12.9641C12.792 12.9284 11.795 12.4846 11.0644 11.7266C10.3339 10.9686 9.92696 9.95605 9.92995 8.9033C9.92995 6.65747 11.745 4.8333 14 4.8333C14.5338 4.82367 15.0644 4.91929 15.5613 5.1147C16.0582 5.31011 16.5118 5.60148 16.8961 5.97218C17.2804 6.34288 17.588 6.78565 17.8012 7.2752C18.0144 7.76475 18.1291 8.29151 18.1387 8.82539C18.1483 9.35926 18.0527 9.88981 17.8573 10.3867C17.6619 10.8837 17.3705 11.3372 16.9998 11.7215C16.6291 12.1059 16.1864 12.4134 15.6968 12.6266C15.2073 12.8398 14.6805 12.9545 14.1466 12.9641ZM9.56329 16.3466C7.34495 17.8316 7.34495 20.2516 9.56329 21.7275C12.0841 23.4141 16.2183 23.4141 18.7391 21.7275C20.9575 20.2425 20.9575 17.8225 18.7391 16.3466C16.2275 14.6691 12.0933 14.6691 9.56329 16.3466Z" stroke="#444444" stroke-linecap="round" stroke-linejoin="round"/>
</svg>
